{"title":"Terminator.Genisys.2015.CAM.XviD.AC3-MenaceIISociety","uid":12154308,"size":1608066405,"categoryP":"video","categoryS":"movies","magnet":"?xt=urn:btih:88c23abd4395e1e70b70c23f982f88a8ab959a0a&amp;dn=Terminator.Genisys.2015.CAM.XviD.AC3-MenaceIISociety&amp;tr=udp%3A%2F%2Ftracker.openbittorrent.com%3A80&amp;tr=udp%3A%2F%2Fopen.demonii.com%3A1337&amp;tr=udp%3A%2F%2Ftracker.coppersurfer.tk%3A6969&amp;tr=udp%3A%2F%2Fexodus.desync.com%3A6969","seeders":0,"leechers":0,"uploader":"TvTeam","files":4,"time":1437732132,"description":"------------------------------------------------------------------------\n\n &lt;a href=&quot; https://www.torrenting.com&quot; rel=&quot;nofollow&quot; target=&quot;_NEW&quot;&gt; https://www.torrenting.com&lt;/a&gt;\n\nSign up is OPEN - for time being. Come and have fun\n\n.......................................................................................................................[img]http://s30.postimg.org/xl2ub574h/terminator_genisys_ver2_brxlg.jpg[/img]\n\nTerminator.Genisys.2015.CAM.XviD.AC3-MenaceIISociety &lt;a href=&quot;\nhttp://www.imdb.com/title/tt1340138/&quot; rel=&quot;nofollow&quot; target=&quot;_NEW&quot;&gt;\nhttp://www.imdb.com/title/tt1340138/&lt;/a&gt;\n\nSource: Portugese 1080p HDCAM http://i.imgur.com/oAZFjrH.jpg\nAudio - MRG [THANKS]\n\nNote: Same vid as the x264 just in XviD format, give the source a -2 rotate, resized, applied some gain and coef settings to make the dark areas a bit more visible :) hardly any movement in ths video, its a tad blurry but its straight :)  Audio is very nice  \n\nGeneral\nComplete name                            : Terminator.Genisys.2015.CAM.XviD.AC3-MenaceIISociety.avi\nFormat                                   : AVI\nFormat/Info                              : Audio Video Interleave\nFile size                                : 1.48 GiB\nDuration                                 : 1h 56mn\nOverall bit rate                         : 1 812 Kbps\n\nVideo\nID                                       : 0\nFormat                                   : MPEG-4 Visual\nFormat profile                           : Advanced Simple@L5\nFormat settings, BVOP                    : 2\nFormat settings, QPel                    : No\nFormat settings, GMC                     : No warppoints\nFormat settings, Matrix                  : Default (H.263)\nMuxing mode                              : Packed bitstream\nCodec ID                                 : XVID\nCodec ID/Hint                            : XviD\nDuration                                 : 1h 56mn\nBit rate                                 : 1 420 Kbps\nWidth                                    : 720 pixels\nHeight                                   : 304 pixels\nDisplay aspect ratio                     : 2.35:1\nFrame rate                               : 29.970 fps\nColor space                              : YUV\nChroma subsampling                       : 4:2:0\nBit depth                                : 8 bits\nScan type                                : Progressive\nCompression mode                         : Lossy\nBits/(Pixel*Frame)                       : 0.216\nStream size                              : 1.16 GiB (78%)\nWriting library                          : XviD 64\n\nAudio\nID                                       : 1\nFormat                                   : AC-3\nFormat/Info                              : Audio Coding 3\nMode extension                           : CM (complete main)\nFormat settings, Endianness              : Big\nCodec ID                                 : 2000\nDuration                                 : 1h 56mn\nBit rate mode                            : Constant\nBit rate                                 : 384 Kbps\nChannel(s)                               : 2 channels\nChannel positions                        : Front: L R\nSampling rate                            : 48.0 KHz\nCompression mode                         : Lossy\nStream size                              : 321 MiB (21%)\nAlignment                                : Aligned on interleaves\nInterleave, duration                     : 64 ms (1.92 video frames)\nInterleave, preload duration             : 192 ms\n\n[img]http://s27.postimg.org/5jhokvec3/vlcsnap_2015_07_03_15h06m21s570.jpg[/img]\n[img]http://s27.postimg.org/9iew3p2z7/vlcsnap_2015_07_03_15h09m56s823.jpg[/img]\n[img]http://s27.postimg.org/3lfm0mb83/vlcsnap_2015_07_03_15h10m19s524.jpg[/img]\n[img]http://s27.postimg.org/wdmdk3ivn/vlcsnap_2015_07_03_15h10m36s926.jpg[/img]\n[img]http://s27.postimg.org/ssqi0vec3/vlcsnap_2015_07_03_15h10m59s615.jpg[/img]\n[img]http://s27.postimg.org/7rvv27lg3/vlcsnap_2015_07_03_15h11m36s179.jpg[/img]\n[img]http://s27.postimg.org/q8uv6rqs3/vlcsnap_2015_07_03_15h11m49s390.jpg[/img]\n[img]http://s27.postimg.org/j1okx5qhf/vlcsnap_2015_07_03_15h12m32s887.jpg[/img]\n[img]http://s27.postimg.org/w4osu6637/vlcsnap_2015_07_03_15h14m55s104.jpg[/img]\n[img]http://s27.postimg.org/nl5ewexqr/vlcsnap_2015_07_03_15h15m31s586.jpg[/img]\n[img]http://s27.postimg.org/420tn1yz7/vlcsnap_2015_07_03_15h16m00s697.jpg[/img]\n[img]http://s27.postimg.org/4wnd936tv/vlcsnap_2015_07_03_15h18m29s062.jpg[/img]\n[img]http://s27.postimg.org/ddmvk0bir/vlcsnap_2015_07_03_15h18m59s542.jpg[/img]\n[img]http://s27.postimg.org/v68frvsr7/vlcsnap_2015_07_03_15h19m16s179.jpg[/img] \n\n[img]http://s17.postimg.org/r1iiyw8yn/Untitled_1.png[/img]","torrent":{"xt":"urn:btih:88c23abd4395e1e70b70c23f982f88a8ab959a0a","amp;dn":"Terminator.Genisys.2015.CAM.XviD.AC3-MenaceIISociety","amp;tr":["udp%3A%2F%2Ftracker.openbittorrent.com%3A80","udp%3A%2F%2Fopen.demonii.com%3A1337","udp%3A%2F%2Ftracker.coppersurfer.tk%3A6969","udp%3A%2F%2Fexodus.desync.com%3A6969"],"infoHash":"88c23abd4395e1e70b70c23f982f88a8ab959a0a","infoHashBuffer":{"type":"Buffer","data":[136,194,58,189,67,149,225,231,11,112,194,63,152,47,136,168,171,149,154,10]},"announce":[],"urlList":[]}}